<svg width="751" height="467" viewBox="0 0 751 467" fill="none" xmlns="http://www.w3.org/2000/svg">
<rect width="751" height="467" fill="#F9F9F9"/>
<rect x="146" y="175" width="385" height="27" rx="13.5" fill="#13213F"/>
<rect x="146" y="263" width="459" height="27" rx="13.5" fill="#D9D9D9"/>
<rect x="146" y="230" width="459" height="3" rx="1.5" fill="#D9D9D9"/>
<path d="M594.622 177.064C595.126 177.559 595.126 178.252 594.622 178.746L573.357 199.629C572.853 200.124 572.147 200.124 571.643 199.629L550.378 178.746C549.874 178.252 549.874 177.559 550.378 177.064L551.083 176.371C551.587 175.876 552.293 175.876 552.797 176.371L572.55 195.67L592.203 176.371C592.707 175.876 593.413 175.876 593.917 176.371L594.622 177.064Z" fill="#13213F"/>
</svg>
