<svg width="751" height="467" viewBox="0 0 751 467" fill="none" xmlns="http://www.w3.org/2000/svg">
<rect width="751" height="467" fill="#F9F9F9"/>
<g filter="url(#filter0_d_1016_2659)">
<rect x="154" y="66" width="427" height="335" rx="25" fill="white"/>
<rect x="154.25" y="66.25" width="426.5" height="334.5" rx="24.75" stroke="#091E42" stroke-opacity="0.15" stroke-width="0.5"/>
</g>
<rect x="184" y="107" width="192" height="27" rx="13.5" fill="#D9D9D9"/>
<path d="M534.506 119.027C533.719 119.807 533.716 121.079 534.499 121.863L542.766 130.129C542.971 130.334 542.996 130.659 542.842 130.947C542.797 131.03 542.732 131.1 542.665 131.167L541.147 132.685C541.08 132.752 541.011 132.817 540.927 132.862C540.64 133.016 540.315 132.99 540.109 132.785L538.469 131.145L531.914 124.526C531.134 123.738 529.863 123.735 529.079 124.519L520.812 132.785C520.607 132.99 520.282 133.016 519.995 132.862C519.911 132.817 519.841 132.752 519.774 132.685L518.257 131.167C518.19 131.1 518.124 131.03 518.08 130.947C517.925 130.659 517.951 130.334 518.156 130.129L526.424 121.861C527.207 121.078 527.205 119.807 526.418 119.027L518.156 110.832C517.951 110.627 517.925 110.302 518.08 110.014C518.124 109.931 518.19 109.861 518.257 109.794L519.774 108.276C519.841 108.209 519.911 108.144 519.995 108.099C520.282 107.945 520.607 107.971 520.812 108.176L529.08 116.443C529.863 117.227 531.134 117.224 531.914 116.438L540.109 108.176C540.315 107.971 540.64 107.945 540.927 108.099C541.011 108.144 541.08 108.209 541.147 108.276L542.665 109.794C542.732 109.861 542.797 109.931 542.842 110.014C542.996 110.302 542.971 110.627 542.766 110.832L541.125 112.473L534.506 119.027Z" fill="#13213F"/>
<defs>
<filter id="filter0_d_1016_2659" x="136" y="58" width="463" height="371" filterUnits="userSpaceOnUse" color-interpolation-filters="sRGB">
<feFlood flood-opacity="0" result="BackgroundImageFix"/>
<feColorMatrix in="SourceAlpha" type="matrix" values="0 0 0 0 0 0 0 0 0 0 0 0 0 0 0 0 0 0 127 0" result="hardAlpha"/>
<feOffset dy="10"/>
<feGaussianBlur stdDeviation="9"/>
<feColorMatrix type="matrix" values="0 0 0 0 0.0352941 0 0 0 0 0.117647 0 0 0 0 0.258824 0 0 0 0.15 0"/>
<feBlend mode="normal" in2="BackgroundImageFix" result="effect1_dropShadow_1016_2659"/>
<feBlend mode="normal" in="SourceGraphic" in2="effect1_dropShadow_1016_2659" result="shape"/>
</filter>
</defs>
</svg>
