<svg width="751" height="467" viewBox="0 0 751 467" fill="none" xmlns="http://www.w3.org/2000/svg">
<g clip-path="url(#clip0_1016_2700)">
<rect width="751" height="467" fill="white"/>
<path d="M749.941 228.213L1.19067 228.52C0.874886 228.52 0.572035 228.395 0.34874 228.172C0.125444 227.948 0 227.645 0 227.33C0 227.014 0.125444 226.711 0.34874 226.488C0.572035 226.264 0.874886 226.139 1.19067 226.139L749.941 225.832C750.256 225.832 750.559 225.957 750.783 226.18C751.006 226.404 751.131 226.706 751.131 227.022C751.131 227.338 751.006 227.641 750.783 227.864C750.559 228.087 750.256 228.213 749.941 228.213Z" fill="#CACACA"/>
<rect width="751" height="229" fill="#F9F9F9"/>
<g filter="url(#filter0_d_1016_2700)">
<rect x="113" y="199" width="525" height="230" rx="25" fill="white"/>
<rect x="113.25" y="199.25" width="524.5" height="229.5" rx="24.75" stroke="#091E42" stroke-opacity="0.15" stroke-width="0.5"/>
</g>
<rect x="533" y="81" width="104" height="93" rx="24" fill="#ECF2FF" stroke="#13213F" stroke-width="2"/>
<path d="M584.5 107.032C573.129 107.032 564.032 116.224 564.032 127.5C564.032 138.871 573.129 147.968 584.5 147.968C595.776 147.968 604.968 138.871 604.968 127.5C604.968 116.224 595.681 107.032 584.5 107.032ZM584.5 104C597.387 104 608 114.613 608 127.5C608 140.482 597.387 151 584.5 151C571.518 151 561 140.482 561 127.5C561 114.613 571.518 104 584.5 104ZM581.089 136.597H582.226V125.226H581.089C580.425 125.226 579.952 124.752 579.952 124.089V123.331C579.952 122.762 580.425 122.194 581.089 122.194H585.637C586.206 122.194 586.774 122.762 586.774 123.331V136.597H587.911C588.48 136.597 589.048 137.165 589.048 137.734V138.492C589.048 139.155 588.48 139.629 587.911 139.629H581.089C580.425 139.629 579.952 139.155 579.952 138.492V137.734C579.952 137.165 580.425 136.597 581.089 136.597ZM584.5 113.855C586.111 113.855 587.532 115.276 587.532 116.887C587.532 118.593 586.111 119.919 584.5 119.919C582.794 119.919 581.468 118.593 581.468 116.887C581.468 115.276 582.794 113.855 584.5 113.855Z" fill="#13213F"/>
<rect x="126" y="115" width="377" height="27" rx="13.5" fill="#D9D9D9"/>
<rect x="151" y="234" width="305" height="27" rx="13.5" fill="#13213F"/>
<rect x="151" y="297" width="464" height="27" rx="13.5" fill="#D9D9D9"/>
<rect x="151" y="360" width="464" height="27" rx="13.5" fill="#D9D9D9"/>
</g>
<defs>
<filter id="filter0_d_1016_2700" x="95" y="191" width="561" height="266" filterUnits="userSpaceOnUse" color-interpolation-filters="sRGB">
<feFlood flood-opacity="0" result="BackgroundImageFix"/>
<feColorMatrix in="SourceAlpha" type="matrix" values="0 0 0 0 0 0 0 0 0 0 0 0 0 0 0 0 0 0 127 0" result="hardAlpha"/>
<feOffset dy="10"/>
<feGaussianBlur stdDeviation="9"/>
<feColorMatrix type="matrix" values="0 0 0 0 0.0352941 0 0 0 0 0.117647 0 0 0 0 0.258824 0 0 0 0.15 0"/>
<feBlend mode="normal" in2="BackgroundImageFix" result="effect1_dropShadow_1016_2700"/>
<feBlend mode="normal" in="SourceGraphic" in2="effect1_dropShadow_1016_2700" result="shape"/>
</filter>
<clipPath id="clip0_1016_2700">
<rect width="751" height="467" fill="white"/>
</clipPath>
</defs>
</svg>
