<svg width="117" height="117" viewBox="0 0 117 117" fill="none" xmlns="http://www.w3.org/2000/svg">
<path d="M12 21C12 16.5817 15.5817 13 20 13H97C101.418 13 105 16.5817 105 21V98C105 102.418 101.418 106 97 106H20C15.5817 106 12 102.418 12 98V21Z" fill="#141E37"/>
<path fill-rule="evenodd" clip-rule="evenodd" d="M92.4788 0.408231C93.9617 1.04727 95.0447 2.36312 95.3866 3.94124L114.887 93.9412C115.445 96.5181 113.906 99.0857 111.371 99.8085L51.7299 116.808C50.0684 117.282 48.2801 116.864 47.0004 115.704L31.6411 101.774C29.5956 99.9193 29.4412 96.7572 31.2963 94.7117C33.1514 92.6662 36.3134 92.5118 38.3589 94.3669L51.6604 106.43L104.121 91.4767L87.0956 12.8999L47.5863 36.7792C45.223 38.2075 42.1492 37.4496 40.7209 35.0863C39.2925 32.723 40.0504 29.6492 42.4137 28.2209L87.9137 0.720865C89.2957 -0.114373 90.9959 -0.230811 92.4788 0.408231Z" fill="#FF8E9E"/>
<rect x="27" y="87" width="26" height="19" fill="#141E37"/>
<path d="M78.541 90.6864C70.7655 90.6864 65.6021 86.2519 65.6021 80.1772V79.4483H74.6533V80.1772C74.6533 81.9389 76.5972 82.9108 78.9055 82.9108C81.0316 82.9108 82.5503 82.1211 82.5503 80.8455C82.5503 76.5325 66.0273 79.6305 66.0273 68.3924C66.0273 62.1356 71.1907 57.8833 78.541 57.8833C85.9521 57.8833 90.9941 62.1963 90.9941 68.0887V68.6962H82.0036V68.0887C82.0036 66.57 80.4849 65.6588 78.4803 65.6588C76.2934 65.6588 75.0177 66.6915 75.0177 67.785C75.0177 71.6727 91.6015 68.8177 91.6015 80.2987C91.6015 87.3453 85.2839 90.6864 78.541 90.6864Z" fill="#FCFAFF"/>
<path d="M51.4901 43H60.602V89.7748H54.5882L53.1302 87.7094C50.8826 89.7748 47.7845 90.686 44.322 90.686C36.7894 90.686 32.112 86.7982 32.112 77.5647V71.0041C32.112 61.7707 36.7894 57.8829 44.322 57.8829C46.9948 57.8829 49.4247 58.4296 51.4901 59.6445V43ZM46.2659 82.4244C49.3032 82.4244 51.4901 80.7843 51.4901 77.504V71.0649C51.4901 67.7845 49.364 66.1444 46.2659 66.1444C43.2286 66.1444 41.2239 67.8453 41.2239 71.2471V77.3217C41.2239 80.7235 43.2286 82.4244 46.2659 82.4244Z" fill="#FCFAFF"/>
<path d="M18 55.514V46.645H27.112V55.514H18ZM18 89.775V58.7943H27.112V89.775H18Z" fill="#FCFAFF"/>
<path d="M92.4788 0.408231C93.9617 1.04727 95.0447 2.36312 95.3866 3.94124L114.887 93.9412C115.445 96.5181 113.906 99.0857 111.371 99.8085L51.7299 116.808L51.6604 106.43L104.121 91.4767L87.0956 12.8999L47.5863 36.7792C45.223 38.2075 42.1492 37.4496 40.7209 35.0863C39.2925 32.723 40.0504 29.6492 42.4137 28.2209L87.9137 0.720865C89.2957 -0.114373 90.9959 -0.230811 92.4788 0.408231Z" fill="#FF8E9E"/>
</svg>
